PathFileType  4	(X/Y/Z) C:\Users\antoi\Documents\MyRepositories\mobilecap\ResultsAnalysis
DataRate	CameraRate	NumFrames	NumMarkers	Units	OrigDataRate	OrigDataStartFrame	OrigNumFrames
100.0	100.0	6	51	mm	100.0	458	1831
Frame#	Time	r_knee			r_shank_antsup			r_ankle			r_calc			r_5meta			r_toe			L_knee			L_shank_antsup			L_ankle			L_calc			L_5meta			L_toe			r_sh2			r_sh3			r_sh4			L_sh2			L_sh3			r_thigh1			r_thigh2			r_thigh3			r_thigh4			r_thigh5			L_thigh1			L_thigh2			L_thigh3			L_thigh4			r.ASIS			r.PSIS			L.ASIS			L.PSIS			C7			R_Shoulder			L_Shoulder			R_Sternum			L_Sternum			R_humerus			R_elbow_med			R_elbow_lat			R_forearm			R_wrist_radius			R_wrist_ulna			L_humerus			L_elbow_med			L_elbow_lat			L_forearm			L_wrist_radius			L_wrist_ulna			R_HJC			L_HJC			R_HJC_reg			L_HJC_reg			
		X1	Y1	Z1	X2	Y2	Z2	X3	Y3	Z3	X4	Y4	Z4	X5	Y5	Z5	X6	Y6	Z6	X7	Y7	Z7	X8	Y8	Z8	X9	Y9	Z9	X10	Y10	Z10	X11	Y11	Z11	X12	Y12	Z12	X13	Y13	Z13	X14	Y14	Z14	X15	Y15	Z15	X16	Y16	Z16	X17	Y17	Z17	X18	Y18	Z18	X19	Y19	Z19	X20	Y20	Z20	X21	Y21	Z21	X22	Y22	Z22	X23	Y23	Z23	X24	Y24	Z24	X25	Y25	Z25	X26	Y26	Z26	X27	Y27	Z27	X28	Y28	Z28	X29	Y29	Z29	X30	Y30	Z30	X31	Y31	Z31	X32	Y32	Z32	X33	Y33	Z33	X34	Y34	Z34	X35	Y35	Z35	X36	Y36	Z36	X37	Y37	Z37	X38	Y38	Z38	X39	Y39	Z39	X40	Y40	Z40	X41	Y41	Z41	X42	Y42	Z42	X43	Y43	Z43	X44	Y44	Z44	X45	Y45	Z45	X46	Y46	Z46	X47	Y47	Z47	X48	Y48	Z48	X49	Y49	Z49	X50	Y50	Z50	X51	Y51	Z51	

458	4.57000000	-213.77767	549.28675	-422.42653	-171.89637	448.67975	-423.92063	-282.67273	124.29049	-430.17708	-366.54661	73.95318	-473.80239	-173.89826	48.29195	-377.99728	-113.60440	75.79944	-439.53753	-238.33137	553.22735	-825.78826	-238.87218	464.81269	-855.01756	-289.67837	126.43372	-821.33236	-366.99889	73.70799	-765.33261	-180.69457	50.72959	-864.92153	-117.57392	78.81166	-805.69202	-204.87418	343.27073	-394.76416	-234.23498	477.85258	-389.87411	-280.83906	372.15753	-378.75938	-327.38035	474.72794	-836.72127	-328.26717	352.51495	-840.89227	-177.32039	878.47398	-425.00006	-157.01983	771.67596	-424.32299	-208.04961	736.97560	-395.52912	-287.91446	854.20281	-423.52373	-259.96875	742.69138	-416.01426	-178.51566	846.90131	-816.08940	-160.71885	707.56952	-816.63682	-286.90641	832.85830	-831.23645	-274.07036	695.86574	-834.17869	-189.58912	1091.04403	-490.56581	-370.08092	1086.53602	-556.02504	-189.62750	1088.95670	-740.51148	-373.89032	1088.76905	-667.79596	-276.75414	1634.67308	-625.46632	-210.48838	1584.67188	-461.01674	-233.01590	1581.65377	-796.10993	-148.85166	1553.55266	-598.02926	-151.84352	1549.61313	-658.15898	-231.07352	1439.30501	-376.15946	-350.78307	1253.74279	-386.34109	-331.31681	1287.24318	-304.94007	-207.79580	1162.64698	-287.92394	-127.34454	1114.01475	-303.44881	-161.72769	1093.45757	-279.87284	-283.30301	1462.54256	-869.95861	-357.98405	1236.02261	-792.37241	-359.07410	1249.90921	-878.97198	-297.06951	1208.76716	-906.74587	-157.29436	1101.71285	-920.09180	-185.40389	1071.70996	-920.93953	-256.92096	967.56978	-509.29984	-264.23149	972.70590	-716.06758	-237.37368	1000.59895	-525.84187	-242.99213	1003.89242	-690.68346	
459	4.58000000	-216.48894	549.42239	-423.35666	-174.45719	449.11395	-424.65803	-282.95768	123.93989	-430.29095	-366.67074	73.68965	-473.58169	-173.95778	48.23357	-377.88390	-113.73640	75.74171	-439.49435	-241.50620	553.37347	-825.30912	-241.87820	464.86279	-854.27139	-289.94355	126.19173	-821.24212	-367.06640	73.58085	-765.32955	-180.71683	50.66017	-864.96130	-117.63010	78.75558	-805.74675	-206.75943	343.56039	-395.30522	-236.78353	477.59636	-390.83599	-283.73962	372.07685	-378.84959	-330.42254	474.32335	-836.01777	-330.62203	352.02601	-840.34673	-176.86874	878.38514	-424.55705	-157.78983	771.24520	-424.40146	-209.21399	737.13307	-395.96879	-287.69302	855.26193	-424.17600	-260.96413	743.41407	-416.88798	-178.88383	846.47970	-816.70197	-162.55496	706.90398	-817.15793	-287.58372	833.48217	-830.43583	-276.26877	696.34788	-833.29261	-187.18768	1091.19203	-490.40220	-367.77591	1086.51116	-556.42003	-186.98106	1088.83645	-740.72299	-371.54502	1088.75336	-667.97921	-279.81037	1634.80446	-625.27917	-212.62338	1585.55838	-460.02268	-235.36855	1582.22668	-795.97268	-150.91572	1554.92983	-597.72295	-153.83571	1551.03049	-657.82859	-231.46382	1438.88697	-376.35735	-348.76723	1251.85468	-386.79180	-329.29675	1284.87661	-305.60182	-205.94818	1159.79115	-288.54788	-125.69285	1110.80971	-303.96781	-160.18353	1089.86364	-280.43130	-283.29333	1462.10565	-870.08069	-354.73377	1234.17738	-793.60806	-355.09795	1248.25501	-880.28217	-291.95232	1208.42552	-907.45892	-149.73161	1104.58940	-919.08060	-177.19353	1073.98993	-920.38022	-254.59548	967.66383	-509.32077	-261.66684	972.61483	-716.10154	-234.82267	1000.43162	-525.77121	-240.40050	1003.74977	-690.86271	
460	4.59000000	-218.56976	549.41231	-424.08666	-176.48263	449.42511	-425.21003	-283.23350	123.58708	-430.45262	-366.71651	73.59667	-473.53615	-173.97196	48.13368	-377.80156	-113.83205	75.70452	-439.48610	-244.10897	553.41420	-825.14647	-244.34862	464.84569	-854.04032	-290.18699	125.96120	-821.27802	-367.12431	73.52547	-765.39774	-180.75085	50.58150	-865.07329	-117.69622	78.67828	-805.84335	-208.15082	343.72225	-395.90392	-238.75882	476.63780	-391.48209	-285.78254	371.59899	-379.40689	-332.85614	473.83245	-835.61294	-332.35154	351.61329	-840.21284	-176.56265	878.28530	-423.99096	-158.65375	770.70177	-424.42465	-210.16824	737.06093	-396.47926	-287.50799	855.89254	-424.75697	-261.71692	743.85644	-417.72523	-179.23490	845.99845	-817.32098	-164.10398	706.34573	-817.97409	-288.22789	833.99384	-830.14110	-278.11546	696.82612	-832.91002	-185.00591	1091.12610	-490.24965	-365.79606	1086.19817	-556.57474	-184.81453	1088.43025	-741.04320	-369.49523	1088.37058	-668.14206	-282.66696	1634.59064	-625.10366	-215.11527	1585.37580	-459.81512	-237.58271	1582.34084	-795.86755	-152.85024	1555.84589	-597.53225	-155.69278	1552.00484	-657.44051	-231.66907	1437.95424	-376.63536	-346.49054	1249.50353	-387.48115	-327.09782	1282.15761	-306.00215	-203.98984	1156.54467	-289.08193	-123.95360	1107.12309	-304.30694	-158.53567	1086.14802	-280.83658	-283.12356	1461.24608	-870.14634	-351.11106	1231.73162	-795.20875	-350.85193	1246.24344	-881.89043	-286.54816	1207.72487	-908.32143	-141.99465	1107.17916	-917.97224	-168.86733	1075.98650	-919.82929	-252.44996	967.51561	-509.28749	-259.47552	972.20736	-716.07571	-232.63409	1000.04739	-525.67817	-238.11852	1003.26840	-691.08923	
461	4.60000000	-220.07306	549.28949	-424.70089	-177.92998	449.55052	-425.70435	-283.47002	123.33255	-430.56725	-366.75995	73.54521	-473.56142	-173.98039	47.99000	-377.75337	-113.92087	75.68476	-439.51556	-246.09281	553.32217	-825.20539	-246.23978	464.79842	-854.29295	-290.39608	125.75459	-821.35282	-367.15573	73.49625	-765.45814	-180.79123	50.50492	-865.23907	-117.73706	78.58839	-805.99357	-209.23311	343.85635	-396.28512	-240.30738	476.16436	-391.76048	-286.36755	371.14030	-380.41506	-334.68377	473.30908	-835.49492	-333.60485	351.14811	-840.18048	-176.25208	878.12920	-423.49465	-159.16139	770.30556	-424.41323	-210.87063	736.77195	-397.02241	-287.30900	856.20933	-425.30469	-262.19040	744.07953	-418.52397	-179.46996	845.54732	-817.99477	-165.33132	705.94201	-818.96316	-288.81216	834.44205	-830.17592	-279.50961	697.37305	-832.94197	-183.03699	1090.90583	-490.25584	-364.18309	1085.65808	-556.62997	-183.09701	1087.81045	-741.22548	-367.77466	1087.62937	-668.29175	-285.29807	1634.15340	-624.97633	-217.38020	1584.72946	-459.51323	-239.59849	1582.04531	-795.73961	-154.59442	1556.38893	-597.33783	-157.45336	1552.58778	-657.08840	-231.69324	1436.60577	-376.95075	-343.84398	1246.62093	-388.21312	-324.69121	1279.12040	-306.30018	-201.93412	1152.99220	-289.46612	-122.13378	1103.06102	-304.45020	-156.86577	1082.42652	-281.12924	-282.74947	1460.10817	-870.32235	-347.32285	1228.86485	-797.25349	-346.35604	1243.94225	-883.57834	-280.90699	1206.84214	-909.31429	-134.09830	1109.59649	-916.98363	-160.35524	1077.89374	-919.58681	-250.51213	967.18344	-509.19898	-257.61098	971.53339	-715.99205	-230.82975	999.68243	-525.60063	-236.15441	1002.60515	-691.14194	
462	4.61000000	-221.00809	549.08835	-425.21056	-178.75423	449.51840	-426.12502	-283.58942	123.22431	-430.57010	-366.81461	73.46971	-473.52238	-174.00436	47.88477	-377.72282	-113.97747	75.66196	-439.55271	-247.41065	553.17608	-825.40790	-247.43490	464.74814	-854.79292	-290.52658	125.56415	-821.46652	-367.17476	73.41986	-765.44918	-180.81553	50.41917	-865.37452	-117.73714	78.48303	-806.18511	-209.88966	343.89807	-396.42560	-241.20676	476.17373	-391.85572	-286.25618	370.99114	-381.11416	-335.88921	472.89627	-835.64430	-334.50630	350.72787	-840.21182	-175.80581	877.86425	-423.24569	-159.10497	770.11592	-424.50109	-211.28465	736.45269	-397.43417	-286.95489	856.37587	-425.78341	-262.38989	744.18153	-419.12947	-179.61029	845.18046	-818.66155	-166.07610	705.64112	-820.00046	-289.22054	834.66001	-829.83689	-280.44078	697.71702	-832.92654	-181.41686	1090.57396	-490.32642	-362.92181	1084.87376	-556.82412	-181.49796	1087.35438	-741.27736	-366.45338	1086.64481	-668.36696	-287.69492	1633.58465	-624.87604	-219.27452	1583.92780	-459.01925	-241.35120	1581.50878	-795.68523	-156.17601	1556.62357	-597.10333	-159.13583	1552.83635	-656.98032	-231.56498	1434.91476	-377.31352	-341.11225	1243.43521	-388.50230	-322.14913	1275.78198	-306.68746	-199.78786	1149.17440	-289.76650	-120.21659	1098.70200	-304.54743	-155.18539	1078.31500	-281.30360	-282.19708	1458.79237	-870.52255	-343.51683	1226.07969	-799.25809	-341.57396	1241.46179	-885.29819	-275.05249	1205.90355	-910.39677	-126.13279	1111.86082	-916.14402	-151.64593	1079.71776	-919.55738	-248.76127	966.68159	-509.20800	-255.83035	970.86949	-716.00546	-229.18673	999.36084	-525.53553	-234.42781	1001.98866	-691.07348	
463	4.62000000	-221.32070	549.00685	-425.44214	-179.04286	449.45587	-426.38843	-283.58145	123.18205	-430.48316	-366.83936	73.40783	-473.45674	-174.01803	47.87952	-377.71262	-113.96116	75.65192	-439.54906	-248.10109	553.03012	-825.60916	-248.00795	464.64026	-855.18303	-290.55143	125.40583	-821.65974	-367.18000	73.33375	-765.42640	-180.81974	50.32774	-865.43716	-117.71731	78.38903	-806.37758	-209.90725	343.79412	-396.57354	-241.40949	476.03385	-391.93593	-286.11157	370.86151	-381.20459	-336.53993	472.66238	-836.06219	-334.99949	350.53202	-840.53137	-175.19576	877.54424	-423.26219	-158.67798	770.00608	-424.69772	-211.31270	736.30735	-397.60468	-286.37331	856.52406	-426.06141	-262.29628	744.26930	-419.47675	-179.62636	844.96269	-819.33547	-166.34981	705.38919	-820.76509	-289.30413	834.68137	-829.23136	-280.95013	697.77150	-832.84353	-180.18400	1090.22715	-490.31638	-361.95072	1083.85827	-557.05347	-180.05404	1087.19363	-741.38192	-365.51209	1085.62572	-668.33437	-289.85303	1632.98494	-624.77636	-220.99284	1583.00037	-458.56540	-242.91316	1580.91050	-795.67725	-157.68680	1556.65293	-596.91395	-160.66336	1552.91028	-657.00545	-231.24889	1433.06543	-377.73535	-338.52977	1240.23289	-388.29165	-319.51771	1272.29982	-307.12052	-197.57216	1145.20224	-290.01197	-118.25636	1094.17817	-304.71929	-153.47410	1073.93500	-281.39561	-281.52098	1457.45333	-870.64845	-339.45127	1223.58676	-801.08674	-336.52500	1239.00609	-887.13350	-268.97872	1204.88295	-911.39973	-118.18989	1114.07198	-915.34185	-142.88407	1081.42740	-919.43405	-247.16773	966.08126	-509.34473	-254.15654	970.36957	-716.14284	-227.58326	998.88221	-525.54152	-232.88342	1001.51228	-691.15154	
